<svg width="524" height="682" xmlns="http://www.w3.org/2000/svg" xmlns:xlink="http://www.w3.org/1999/xlink" overflow="hidden"><defs><filter id="fx0" x="-10%" y="-10%" width="120%" height="120%" filterUnits="userSpaceOnUse" primitiveUnits="userSpaceOnUse"><feComponentTransfer color-interpolation-filters="sRGB"><feFuncR type="discrete" tableValues="0 0"/><feFuncG type="discrete" tableValues="0 0"/><feFuncB type="discrete" tableValues="0 0"/><feFuncA type="linear" slope="0.4" intercept="0"/></feComponentTransfer><feGaussianBlur stdDeviation="1.77721 1.77734"/></filter><filter id="fx1" x="-10%" y="-10%" width="120%" height="120%" filterUnits="userSpaceOnUse" primitiveUnits="userSpaceOnUse"><feComponentTransfer color-interpolation-filters="sRGB"><feFuncR type="discrete" tableValues="0 0"/><feFuncG type="discrete" tableValues="0 0"/><feFuncB type="discrete" tableValues="0 0"/><feFuncA type="linear" slope="0.4" intercept="0"/></feComponentTransfer><feGaussianBlur stdDeviation="1.77721 1.77734"/></filter><clipPath id="clip2"><rect x="0" y="0" width="524" height="682"/></clipPath><clipPath id="clip3"><rect x="-2" y="-2" width="100" height="48"/></clipPath><clipPath id="clip4"><rect x="0" y="0" width="97" height="46"/></clipPath><clipPath id="clip5"><rect x="-2" y="-2" width="100" height="48"/></clipPath><clipPath id="clip6"><rect x="0" y="0" width="96" height="46"/></clipPath></defs><g clip-path="url(#clip2)"><rect x="0" y="0" width="524" height="682.05" fill="#FFFFFF"/><path d="M371.833 321.524 371.833 327.986 371.167 327.986 371.167 321.524ZM375.499 326.653 371.5 334.651 367.501 326.653Z" fill="#4472C4"/><path d="M148.833 321.524 148.833 327.986 148.167 327.986 148.167 321.524ZM152.499 326.653 148.5 334.651 144.501 326.653Z" fill="#4472C4"/><rect x="277" y="434.032" width="242" height="104.008" fill="#FFE5FF"/><rect x="9.99997" y="434.032" width="243" height="106.008" fill="#D5FFEA"/><rect x="8.99997" y="27.002" width="472" height="137.01" fill="#CCECFF"/><rect x="150.5" y="43.5032" width="225" height="54.004" stroke="#7F7F7F" stroke-width="1.33291" stroke-miterlimit="8" fill="#E8EEF8"/><text font-family="DengXian,DengXian_MSFontService,sans-serif" font-weight="400" font-size="16" transform="matrix(1 0 0 1.00007 225.359 66)">L<tspan font-size="16" x="7.4976" y="0">1</tspan><tspan font-size="16" x="20.3269" y="0">I</tspan><tspan font-size="16" x="24.3256" y="0">-</tspan><tspan font-size="16" x="32.323" y="0">Cache</tspan><tspan font-size="16" x="2.58585" y="18.9986">Mult</tspan><tspan font-size="16" x="33.9092" y="18.9986">i</tspan><tspan font-size="16" x="41.74" y="18.9986">Way</tspan></text><rect x="150.5" y="121.509" width="225" height="39.0029" stroke="#7F7F7F" stroke-width="1.33291" stroke-miterlimit="8" fill="#E8EEF8"/><text font-family="DengXian,DengXian_MSFontService,sans-serif" font-weight="400" font-size="16" transform="matrix(1 0 0 1.00007 209.114 146)">Prefetch <tspan font-size="16" x="60.814" y="0">Queue</tspan></text><rect x="48.5" y="49.5036" width="67" height="27.002" stroke="#7F7F7F" stroke-width="1.33291" stroke-miterlimit="8" fill="#E8EEF8"/><text font-family="DengXian,DengXian_MSFontService,sans-serif" font-weight="400" font-size="16" transform="matrix(1 0 0 1.00007 57.6545 68)">Gshare</text><rect x="146.5" y="174.513" width="225" height="39.0029" stroke="#7F7F7F" stroke-width="1.33291" stroke-miterlimit="8" fill="#D9D9D9"/><text font-family="DengXian,DengXian_MSFontService,sans-serif" font-weight="400" font-size="16" transform="matrix(1 0 0 1.00007 232.311 199)">Decode</text><rect x="25.5" y="456.534" width="60" height="50.0036" stroke="#7F7F7F" stroke-width="1.33291" stroke-miterlimit="8" fill="#BDFFE9"/><text font-family="DengXian,DengXian_MSFontService,sans-serif" font-weight="400" font-size="16" transform="matrix(1 0 0 1.00007 40.5496 487)">ALU</text><rect x="103.5" y="456.534" width="61" height="36.0027" stroke="#7F7F7F" stroke-width="1.33291" stroke-miterlimit="8" fill="#BDFFE9"/><text font-family="DengXian,DengXian_MSFontService,sans-serif" font-weight="400" font-size="16" transform="matrix(1 0 0 1.00007 117.646 479)">AGU</text><rect x="180.5" y="456.534" width="60" height="49.0036" stroke="#7F7F7F" stroke-width="1.33291" stroke-miterlimit="8" fill="#BDFFE9"/><text font-family="DengXian,DengXian_MSFontService,sans-serif" font-weight="400" font-size="16" transform="matrix(1 0 0 1.00007 195.644 486)">BRU</text><rect x="288.5" y="460.534" width="59.9999" height="49.0036" stroke="#7F7F7F" stroke-width="1.33291" stroke-miterlimit="8" fill="#FFA7FF"/><text font-family="DengXian,DengXian_MSFontService,sans-serif" font-weight="400" font-size="16" transform="matrix(1 0 0 1.00007 303.981 490)">ALU</text><rect x="441.5" y="460.534" width="60" height="49.0036" stroke="#7F7F7F" stroke-width="1.33291" stroke-miterlimit="8" fill="#FFA7FF"/><text font-family="DengXian,DengXian_MSFontService,sans-serif" font-weight="400" font-size="16" transform="matrix(1 0 0 1.00007 456.895 490)">BRU</text><path d="M115.501 76.1724 143.504 76.2631 143.502 76.9296 115.499 76.8389ZM142.183 72.593 150.168 76.6179 142.158 80.591Z" fill="#4472C4"/><path d="M0.333227-2.98707e-06 0.333377 16.7519-0.333077 16.7519-0.333227 2.98707e-06ZM3.99887 15.419 0.000209907 23.4165-3.99859 15.4191Z" fill="#4472C4" transform="matrix(-1 0 0 1.00007 222.5 97.5072)"/><rect x="375.5" y="43.5032" width="72" height="54.004" stroke="#7F7F7F" stroke-width="1.33291" stroke-miterlimit="8" fill="#E8EEF8"/><text font-family="DengXian,DengXian_MSFontService,sans-serif" font-weight="400" font-size="16" transform="matrix(1 0 0 1.00007 385.785 75)">I<tspan font-size="16" x="3.99872" y="0">-</tspan><tspan font-size="16" x="11.9962" y="0">MMU</tspan></text><path d="M0.333227-2.98707e-06 0.333377 16.7519-0.333077 16.7519-0.333227 2.98707e-06ZM3.99887 15.419 0.000209907 23.4165-3.99859 15.4191Z" fill="#4472C4" transform="matrix(-1 0 0 1.00007 251.5 97.5072)"/><text font-family="DengXian,DengXian_MSFontService,sans-serif" font-weight="400" font-size="16" transform="matrix(1 0 0 1.00007 63.6272 354)">RS #1<tspan font-size="16" x="221.628" y="0">RS #2</tspan><tspan font-size="16" x="-49.3713" y="-196.985">Frontend</tspan></text><path d="M0.333227-2.98707e-06 0.333377 16.7519-0.333077 16.7519-0.333227 2.98707e-06ZM3.99887 15.419 0.000209907 23.4165-3.99859 15.4191Z" fill="#4472C4" transform="matrix(-1 0 0 1.00007 277.5 98.5073)"/><path d="M0.333227-2.98707e-06 0.333377 16.7519-0.333077 16.7519-0.333227 2.98707e-06ZM3.99887 15.419 0.000209907 23.4165-3.99859 15.4191Z" fill="#4472C4" transform="matrix(-1 0 0 1.00007 305.5 97.5072)"/><path d="M55.8333 397.529 55.8335 450.896 55.167 450.896 55.1668 397.529ZM59.4989 449.563 55.5002 457.561 51.5015 449.563Z" fill="#4472C4"/><path d="M134.833 397.529 134.833 450.896 134.167 450.896 134.167 397.529ZM138.499 449.563 134.5 457.561 130.501 449.563Z" fill="#4472C4"/><path d="M209.833 396.529 209.833 449.896 209.167 449.896 209.167 396.529ZM213.499 448.563 209.5 456.561 205.501 448.563Z" fill="#4472C4"/><path d="M319.833 399.529 319.833 452.896 319.167 452.896 319.167 399.529ZM323.499 451.563 319.5 459.561 315.501 451.563Z" fill="#4472C4"/><path d="M398.833 399.529 398.833 452.896 398.167 452.896 398.167 399.529ZM402.499 451.563 398.5 459.561 394.501 451.563Z" fill="#4472C4"/><path d="M473.833 399.529 473.833 452.896 473.167 452.896 473.167 399.529ZM477.499 451.563 473.5 459.561 469.501 451.563Z" fill="#4472C4"/><rect x="9.99997" y="560.041" width="512" height="99.0072" fill="#E8EEF8"/><rect x="384.5" y="586.543" width="115" height="55.0041" stroke="#7F7F7F" stroke-width="1.33291" stroke-miterlimit="8" fill="#DAE3F3"/><text font-family="DengXian,DengXian_MSFontService,sans-serif" font-weight="400" font-size="16" transform="matrix(1 0 0 1.00007 400.519 610)">L<tspan font-size="16" x="7.49762" y="0">1</tspan><tspan font-size="16" x="20.3269" y="0">D</tspan><tspan font-size="16" x="31.3234" y="0">-</tspan><tspan font-size="16" x="39.3208" y="0">Cache</tspan><tspan font-size="16" x="6.07806" y="18.9986">Mult</tspan><tspan font-size="16" x="37.4014" y="18.9986">i</tspan><tspan font-size="16" x="45.2323" y="18.9986">Way</tspan></text><rect x="310.5" y="586.543" width="74" height="55.0041" stroke="#7F7F7F" stroke-width="1.33291" stroke-miterlimit="8" fill="#DAE3F3"/><text font-family="DengXian,DengXian_MSFontService,sans-serif" font-weight="400" font-size="16" transform="matrix(1 0 0 1.00007 337.05 609)">D<tspan font-size="16" x="10.9965" y="0">-</tspan><tspan font-size="16" x="-9.66357" y="18.9986">MMU</tspan><tspan font-size="16" x="-317.386" y="39.9971">LSU</tspan></text><rect x="6.49998" y="380.528" width="502" height="37.0027" stroke="#7F7F7F" stroke-width="1.33291" stroke-miterlimit="8" fill="#D9D9D9"/><text font-family="DengXian,DengXian_MSFontService,sans-serif" font-weight="400" font-size="16" transform="matrix(1 0 0 1.00007 161.289 404)">Physical Regfile &amp; Busytable</text><path d="M0-0.333227 122.019-0.333227 122.019 169.378 121.352 169.378 121.352 0 121.686 0.333227 0 0.333227ZM125.684 168.045 121.686 176.042 117.687 168.045Z" fill="#4472C4" transform="matrix(1.83697e-16 1.00007 1 -1.83711e-16 133.5 492.536)"/><path d="M396.042 509.537 396.042 548.356 286.508 548.356 286.841 548.023 286.841 613.897 286.508 613.564 303.835 613.564 303.835 614.23 286.175 614.23 286.175 547.69 395.708 547.69 395.375 548.023 395.375 509.537ZM302.503 609.898 310.5 613.897 302.503 617.896Z" fill="#4472C4"/><rect x="48.5" y="76.5056" width="67" height="23.0017" stroke="#7F7F7F" stroke-width="1.33291" stroke-miterlimit="8" fill="#E8EEF8"/><text font-family="DengXian,DengXian_MSFontService,sans-serif" font-weight="400" font-size="16" transform="matrix(1 0 0 1.00007 68.6021 93)">BTB<tspan font-size="16" x="-52.8745" y="438.968">EXU #1</tspan><tspan font-size="16" x="216.124" y="438.968">EXU #2</tspan></text><rect x="103.5" y="492.536" width="61" height="17.0012" stroke="#7F7F7F" stroke-width="1.33291" stroke-miterlimit="8" fill="#BDFFE9"/><text font-family="DengXian,DengXian_MSFontService,sans-serif" font-weight="400" font-size="8" transform="matrix(1 0 0 1.00007 115.397 503)">Store Data</text><rect x="368.5" y="459.534" width="60" height="36.0027" stroke="#7F7F7F" stroke-width="1.33291" stroke-miterlimit="8" fill="#FFA7FF"/><text font-family="DengXian,DengXian_MSFontService,sans-serif" font-weight="400" font-size="16" transform="matrix(1 0 0 1.00007 382.025 482)">AGU</text><rect x="368.5" y="495.537" width="60" height="17.0012" stroke="#7F7F7F" stroke-width="1.33291" stroke-miterlimit="8" fill="#FFA7FF"/><text font-family="DengXian,DengXian_MSFontService,sans-serif" font-weight="400" font-size="8" transform="matrix(1 0 0 1.00007 379.775 506)">Store Data</text><path d="M243.833 160.512 243.833 166.974 243.167 166.974 243.167 160.512ZM247.499 165.641 243.5 173.639 239.501 165.641Z" fill="#4472C4"/><path d="M271.833 160.512 271.833 166.974 271.167 166.974 271.167 160.512ZM275.499 165.641 271.5 173.639 267.501 165.641Z" fill="#4472C4"/><path d="M148.833 366.527 148.833 372.989 148.167 372.989 148.167 366.527ZM152.499 371.656 148.5 379.654 144.501 371.656Z" fill="#4472C4"/><path d="M371.833 365.527 371.833 371.989 371.167 371.989 371.167 365.527ZM375.499 370.656 371.5 378.654 367.501 370.656Z" fill="#4472C4"/><g clip-path="url(#clip3)" filter="url(#fx0)" transform="translate(103 330)"><g clip-path="url(#clip4)"><rect x="7.32751" y="7.35239" width="82.0001" height="31.0023" stroke="#7F7F7F" stroke-miterlimit="8" fill="#BDFFE9"/><path d="M7.32751 23.3535 88.9986 23.3536" stroke="#7F7F7F" stroke-miterlimit="8" fill="#BDFFE9" fill-rule="evenodd"/></g></g><rect x="107.5" y="334.525" width="82.0001" height="31.0023" stroke="#7F7F7F" stroke-width="1.33291" stroke-miterlimit="8" fill="#BDFFE9"/><path d="M107.5 350.526 189.171 350.526" stroke="#7F7F7F" stroke-width="0.666455" stroke-miterlimit="8" fill="#BDFFE9" fill-rule="evenodd"/><path d="M107.5 334.525 115.904 342.837" stroke="#4472C4" stroke-width="0.666455" stroke-miterlimit="8" fill="none" fill-rule="evenodd"/><path d="M0 0 8.40436 7.49714" stroke="#4472C4" stroke-width="0.666455" stroke-miterlimit="8" fill="none" fill-rule="evenodd" transform="matrix(-1 0 0 1.00007 115.904 342.525)"/><path d="M107.5 350.526 115.904 358.838" stroke="#4472C4" stroke-width="0.666455" stroke-miterlimit="8" fill="none" fill-rule="evenodd"/><path d="M0 0 8.40436 7.49714" stroke="#4472C4" stroke-width="0.666455" stroke-miterlimit="8" fill="none" fill-rule="evenodd" transform="matrix(-1 0 0 1.00007 115.904 358.526)"/><g clip-path="url(#clip5)" filter="url(#fx1)" transform="translate(327 329)"><g clip-path="url(#clip6)"><rect x="7.32755" y="7.35233" width="81" height="31.0023" stroke="#7F7F7F" stroke-miterlimit="8" fill="#FFA7FF"/><path d="M7.32755 23.3535 88.9987 23.3536" stroke="#7F7F7F" stroke-miterlimit="8" fill="#FFA7FF" fill-rule="evenodd"/></g></g><rect x="331.5" y="333.525" width="81" height="31.0023" stroke="#7F7F7F" stroke-width="1.33291" stroke-miterlimit="8" fill="#FFA7FF"/><path d="M331.5 349.526 413.171 349.526" stroke="#7F7F7F" stroke-width="0.666455" stroke-miterlimit="8" fill="#FFA7FF" fill-rule="evenodd"/><path d="M331.5 333.525 339.905 341.837" stroke="#4472C4" stroke-width="0.666455" stroke-miterlimit="8" fill="none" fill-rule="evenodd"/><path d="M0 0 8.40436 7.49714" stroke="#4472C4" stroke-width="0.666455" stroke-miterlimit="8" fill="none" fill-rule="evenodd" transform="matrix(-1 0 0 1.00007 339.904 341.525)"/><path d="M331.5 349.526 339.905 357.838" stroke="#4472C4" stroke-width="0.666455" stroke-miterlimit="8" fill="none" fill-rule="evenodd"/><path d="M0 0 8.40436 7.49714" stroke="#4472C4" stroke-width="0.666455" stroke-miterlimit="8" fill="none" fill-rule="evenodd" transform="matrix(-1 0 0 1.00007 339.904 356.526)"/><rect x="8.99997" y="226.017" width="501" height="96.0071" fill="#FFE1FF"/><rect x="415.5" y="237.517" width="88" height="68.005" stroke="#7F7F7F" stroke-width="1.33291" stroke-miterlimit="8" fill="#CCFFFF"/><text font-family="DengXian,DengXian_MSFontService,sans-serif" font-weight="400" font-size="16" transform="matrix(1 0 0 1.00007 426.211 257)">Re<tspan font-size="16" x="17.3278" y="0">-</tspan><tspan font-size="16" x="25.3253" y="0">Order </tspan><tspan font-size="16" x="12.496" y="18.9986">Buffer</tspan><tspan font-size="16" x="13.0758" y="37.9972">(ROB)</tspan></text><rect x="26.5" y="245.518" width="158" height="42.0032" stroke="#7F7F7F" stroke-width="1.33291" stroke-miterlimit="8" fill="#FF9FC6"/><text font-family="DengXian,DengXian_MSFontService,sans-serif" font-weight="400" font-size="16" transform="matrix(1 0 0 1.00007 38.509 262)">R<tspan font-size="16" x="9.16375" y="0">egister </tspan><tspan font-size="16" x="59.6477" y="0">A</tspan>lias T<tspan font-size="16" x="103.967" y="0">able</tspan><tspan font-size="16" x="47.9048" y="18.9986">(RAT)</tspan></text><rect x="264.5" y="246.518" width="83.9999" height="41.0031" stroke="#7F7F7F" stroke-width="1.33291" stroke-miterlimit="8" fill="#FFFFCC"/><text font-family="DengXian,DengXian_MSFontService,sans-serif" font-weight="400" font-size="16" transform="matrix(1 0 0 1.00007 277.526 262)">Free List<tspan font-size="16" x="15.9949" y="18.9986">(FL)</tspan></text><path d="M245.833 212.516 245.833 218.978 245.167 218.978 245.167 212.516ZM249.499 217.645 245.5 225.643 241.501 217.645Z" fill="#4472C4"/><rect x="355.5" y="247.518" width="46" height="41.0031" stroke="#7F7F7F" stroke-width="1.33291" stroke-miterlimit="8" fill="#FFFFCC"/><text font-family="DengXian,DengXian_MSFontService,sans-serif" font-weight="400" font-size="16" transform="matrix(1 0 0 1.00007 366.274 273)">aFL<tspan font-size="16" x="-352.231" y="40.997">Rename &amp; Dispatch</tspan></text><rect x="189.5" y="246.518" width="61.9999" height="41.0031" stroke="#7F7F7F" stroke-width="1.33291" stroke-miterlimit="8" fill="#FF9FC6"/><text font-family="DengXian,DengXian_MSFontService,sans-serif" font-weight="400" font-size="16" transform="matrix(1 0 0 1.00007 202.098 272)">aRAT</text><path d="M273.833 213.516 273.833 219.978 273.167 219.978 273.167 213.516ZM277.499 218.645 273.5 226.643 269.501 218.645Z" fill="#4472C4"/></g></svg>